PathFileType	4	(X/Y/Z)	Patient4_TMGait_0pt5_02_right_12.trc.trc
DataRate	CameraRate	NumFrames	NumMarkers	Units	OrigDataRate	OrigDataStartFrame	OrigNumFrames
78.651685393258	78.651685393258	4	33	mm	78.651685393258	1	       141
Frame#	Time	Sacral			L.Shoulder			Chest			R.Shoulder			Neck			R.ASIS			L.ASIS			R.Thigh.Superior			R.Thigh.Lateral			R.Thigh.Inferior			R.Patella			L.Thigh.Superior			L.Thigh.Lateral			L.Thigh.Inferior			L.Patella			L.Shank.Superior			L.Shank.Lateral			L.Shank.Inferior			R.Shank.Superior			R.Shank.Lateral			R.Shank.Inferior			R.Heel			R.Midfoot.Superior			R.Midfoot.Lateral			R.Toe			L.Heel			L.Midfoot.Lateral			L.Midfoot.Superior			L.Toe			L.Elbow			L.Wrist			R.Elbow			R.Wrist			
		X1	Y1	Z1	X2	Y2	Z2	X3	Y3	Z3	X4	Y4	Z4	X5	Y5	Z5	X6	Y6	Z6	X7	Y7	Z7	X8	Y8	Z8	X9	Y9	Z9	X10	Y10	Z10	X11	Y11	Z11	X12	Y12	Z12	X13	Y13	Z13	X14	Y14	Z14	X15	Y15	Z15	X16	Y16	Z16	X17	Y17	Z17	X18	Y18	Z18	X19	Y19	Z19	X20	Y20	Z20	X21	Y21	Z21	X22	Y22	Z22	X23	Y23	Z23	X24	Y24	Z24	X25	Y25	Z25	X26	Y26	Z26	X27	Y27	Z27	X28	Y28	Z28	X29	Y29	Z29	X30	Y30	Z30	X31	Y31	Z31	X32	Y32	Z32	X33	Y33	Z33	

1	15.750000000000	540.616462245134	1003.116932870217	453.818033141304	707.125904727468	1441.889970800540	285.254010482645	809.803871868369	1368.057385112926	445.162590851989	722.074649462641	1434.157833964625	621.150528400095	703.024359469912	1497.620068153235	439.379919320513	768.789740702336	944.901992476790	571.346868474032	758.241982109010	964.756418243006	295.842973817261	855.843809705363	776.632647616804	542.040530556876	818.547681484110	655.766436522470	615.627849715498	909.489288094128	617.753042500498	537.026050954418	929.526372634257	502.770160666150	559.365951787605	805.614117089657	749.701740157201	329.000145634510	715.754925271227	634.122172036621	273.485131918970	795.584177624352	555.770156157030	340.536012875855	793.619190382413	485.523935604690	354.015408704785	765.187172886067	413.354140378312	346.256420308926	675.397268198198	301.016509067579	292.724799315948	715.903179553810	190.585499591230	370.100908975825	850.320275067739	429.724968149533	568.903380687787	727.308477234425	397.628624679966	629.671903492960	707.326246443841	288.436421661386	584.854037939889	508.272223700140	253.499748610319	555.580797042755	661.234618280476	162.842448312635	603.110736859761	551.332572600032	183.959117368507	630.955178987110	698.066454768766	37.946995591385	631.196858787270	579.569749321331	37.361624179154	407.704016367845	656.353357918552	34.955482432619	329.224169682920	738.667580927296	95.607672404514	359.308235979819	867.912935214730	43.904039306250	334.251988656897	731.701030246850	1097.962801934396	140.087617960052	876.823955523858	879.248748318386	128.500602320721	685.411835670234	1080.795965567674	718.580780258485	800.231406687150	845.073231179417	717.178331668505	
2	15.762714285714	540.129719307016	1003.642658601577	452.569603834269	708.647234704113	1442.411480804616	284.601617538675	809.857800398774	1368.243176622405	445.256532807340	720.875624712584	1434.214021751054	620.710291174940	703.228732539930	1497.946413611347	438.833294395529	767.696532753701	945.548192384541	571.013264659792	758.324998588908	964.709710295886	295.434899074431	855.954805276329	779.284062318081	540.823298288490	820.597999341212	658.048794288131	614.902472987755	911.535757925246	621.023584708295	535.654897322781	933.597964195991	506.815679060000	558.140557104271	803.397975150145	748.827809941184	329.032426048456	712.432199991005	634.102974329728	273.126054907008	791.228395416995	555.027633128019	340.368094354300	788.422125407664	484.848596831836	353.941332321832	759.881961465558	413.049358355915	346.103183870837	669.754030889157	301.028324363616	292.463085465148	709.637980727951	190.480886809686	369.952438242562	856.629566041151	432.034585901937	567.738029186276	734.993596976190	395.599987015519	628.365550560511	718.983600555800	285.869884528396	583.459205696729	521.324651420267	242.741290291177	554.194763928567	678.022463154855	159.477296829844	601.545283736907	567.777499991893	175.862156761357	629.844703975279	720.482001362970	36.825433572587	629.873570431679	572.861776171822	37.471605998358	407.658470992063	649.607676631051	34.964059382415	329.206251458197	732.023872145831	95.576068684526	359.224999528081	861.225560544574	43.623036522326	334.229659338258	737.076218095003	1099.644221959117	138.296502960721	891.525629015840	888.184322758605	127.188703586220	675.747849139771	1082.203038994977	717.042127293645	771.874277562677	840.784402366743	718.785735409424	
3	15.775428571429	539.641570142789	1004.157487095382	451.355197568250	710.182110406456	1442.901147869753	283.979277109746	809.940426975347	1368.398979899350	445.364457120375	719.740172014724	1434.267725971870	620.294399900029	703.471738019160	1498.253895715770	438.308573854666	766.602458709106	946.164534944736	570.700164432658	758.370823903407	964.643953663316	295.059501633997	856.028042081631	781.851801120883	539.668932687264	822.594958555774	660.272000809140	614.254059155164	913.467390759153	624.179486850084	534.348146007270	937.502399244157	510.784560797399	557.023855743871	801.183005845996	747.961402450527	329.080939117215	709.126917004798	634.087219598158	272.766451768892	786.891442754510	554.294449323023	340.198418974241	783.253146947744	484.188790871057	353.854897464009	754.607600460971	412.749930863050	345.942994633415	664.143813663036	301.041932904178	292.203363560243	703.421138686871	190.380469464778	369.800442909610	862.820241128687	434.252981529833	566.658968065031	742.608965056904	393.390994954367	627.124428968419	730.658982368643	283.157526424934	582.119214989803	534.504682444063	231.718041334101	552.825470840631	694.899637391635	155.978523636224	600.030377685495	584.324426786237	167.541553081808	628.750679110282	743.031419269268	35.658403627765	628.614234638413	566.210349907926	37.580650985969	407.610205959602	642.920019968353	34.973829425612	329.186620951926	725.434596909505	95.542848075769	359.142532588235	854.594867886242	43.344750969525	334.206144880190	742.356530971035	1101.278586459293	136.559935637000	905.995692849305	897.103683341403	125.948334143122	666.104993931212	1083.677397375328	715.567833494559	743.966297374626	836.915083422521	720.329383768517	
4	15.788142857143	539.155405353045	1004.650172738575	450.211591920944	711.746981547891	1443.322971718192	283.422312525720	810.083561720035	1368.491462177485	445.506457507041	718.734510975115	1434.315100394742	619.930112803642	703.796741376760	1498.520680871215	437.831211052909	765.510793093760	946.714834576432	570.436181687086	758.352895602521	964.536159069634	294.748103254233	855.994847838420	784.213230565053	538.654674652707	824.396878825445	662.334787893579	613.756565642246	915.106722955026	627.061304390756	533.190147456371	941.007976721603	514.569546240795	556.112989534762	798.968594836067	747.104583494784	329.161528271460	705.847356433287	634.075021779193	272.413566503833	782.583634756180	553.576371790880	340.026793786382	778.130305698409	483.554174174453	353.747295730495	749.382182816822	412.456881922465	345.772478121720	658.582923898983	301.058923596825	291.949902234687	697.277811041260	190.285672535063	369.644145435962	868.734291092824	436.285288283501	565.748361565314	750.109153653872	390.828056428563	626.035041047184	742.401675477144	280.193932012193	580.902435515068	548.056108427660	220.202665195544	551.530001685994	712.016769696332	152.287458760163	598.631788064428	601.190814948117	158.838963204788	627.718620105342	765.898502900603	34.525137715038	627.478977925839	559.646659453937	37.689029612105	407.558080944140	636.322618590801	34.985736870096	329.164714525834	718.929165421209	95.507151448031	359.061535497629	848.051831633690	43.072126308942	334.180944500277	747.461379280015	1102.814929522118	134.941373844225	920.005560403212	905.988008443016	124.860536449709	656.511384257536	1085.309187392345	714.222575787507	716.946944398778	833.865786083958	721.752364189515	
